<svg width="803" height="376" viewBox="0 0 803 376" fill="none" xmlns="http://www.w3.org/2000/svg">
<g clip-path="url(#clip0_1_43)">
<path d="M111.1 117.3C108.8 97.3 96.2 87.5 72.9 87.5C52.4 87.5 39.3 95.8 39.3 108.4C39.3 119 47.3 125.3 66.9 129.5L91.8 134.6C110 138.5 119.1 142.2 126.5 148.5C134.5 155.2 138.9 165 138.9 176.3C138.9 203.7 115.5 220.6 78.2001 220.6C38.4001 220.6 14.5 201.5 11.3 166.7H34.1C36.4 189.7 52.5 202.5 78.9 202.5C101 202.5 116.6 192.3 116.6 177.7C116.6 166.8 108.3 159.7 92.2001 156L57.8 148.3C29.8 142 17.1 130.3 17.1 110.7C17.1 85.3 39.4001 69.2 74.6001 69.2C109.8 69.2 128.6 84.6 133.4 117.2H111.1V117.3Z" fill="white"/>
<path d="M189.5 217.4H167.7V72.5H189.5V217.4Z" fill="white"/>
<path d="M280.7 217.4H258.9V90.5H211.1V72.5H328.5V90.5H280.7V217.4Z" fill="white"/>
<path d="M451 117.9C446.4 98.8 431 87.3 409.9 87.3C380.5 87.3 361.2 109.9 361.2 144C361.2 179 380.5 202.6 409.2 202.6C433.1 202.6 449.7 187.4 453.1 162.2H475.2C473.4 176.5 469.9 185.7 462.1 195.9C449.5 212.4 431.8 220.7 408.8 220.7C386 220.7 367.9 212.4 355 195.9C344 181.8 338.2 164.2 338.2 144.4C338.2 100.3 367.8 69.2 409.9 69.2C442.5 69.2 465.7 86.6 472.4 115.9L451 117.9Z" fill="white"/>
<path d="M772.3 217.4L709.6 126C702 114.7 697.4 107.5 693.7 101C694.2 107.5 694.4 121.2 694.4 128.4V217.5H673.7V72.5H696L756.2 160.7C761.9 169 769.8 182 774.4 190.7C773.9 182.7 773.7 173.8 773.7 163.5V73.4H794.4V217.4H772.3Z" fill="white"/>
<path d="M599.2 7.79998C612.1 -2.10002 627.5 1.59998 627.5 1.59998C627.5 1.59998 624.9 19.9 612 29.8C599.1 39.7 580.6 37.3 580.6 37.3C580.6 37.3 584.6 31.3 588.6 23.4C591 18.8 594.4 11.4 599.2 7.79998Z" fill="white"/>
<path d="M568.1 22.7C562.1 18.1 554.9 19.8 554.9 19.8C554.9 19.8 556.1 28.4 562.1 33C568.1 37.6 576.7 36.5 576.7 36.5C576.7 36.5 574.8 33.7 573 30C571.9 27.8 570.3 24.4 568.1 22.7Z" fill="white"/>
<path d="M569.6 66.4C571.4 66.4 573.1 66.5 574.9 66.6C573.3 57.2 573.6 47.5 578.5 39.1C570 45.9 565.9 56.3 563.8 66.7C565.7 66.5 567.6 66.4 569.6 66.4Z" fill="white"/>
<path d="M569.6 69.5C527.2 69.5 492.8 103.8 492.8 146C492.8 188.3 527.2 222.5 569.6 222.5C612 222.5 646.4 188.2 646.4 146C646.3 103.8 612 69.5 569.6 69.5ZM600.9 177.3L569.5 155.8L538.1 177.3L559.7 146L538.1 114.7L569.5 136.2L600.9 114.7L579.3 146L600.9 177.3Z" fill="white"/>
</g>
<path d="M44.995 251.632C50.371 251.632 55.0643 252.4 59.075 253.936C63.0857 255.472 67.011 257.819 70.851 260.976L62.275 270.96C57.0697 266.779 51.6083 264.688 45.891 264.688C39.3203 264.688 34.0297 267.333 30.019 272.624C26.0937 277.915 24.131 286.235 24.131 297.584C24.131 308.677 26.0937 316.912 30.019 322.288C33.9443 327.664 39.235 330.352 45.891 330.352C49.3897 330.352 52.5043 329.755 55.235 328.56C57.9657 327.28 60.867 325.488 63.939 323.184L71.875 333.168C68.8883 336.24 65.091 338.8 60.483 340.848C55.9603 342.896 50.883 343.92 45.251 343.92C37.571 343.92 30.787 342.128 24.899 338.544C19.011 334.96 14.4457 329.712 11.203 322.8C7.96032 315.803 6.33899 307.397 6.33899 297.584C6.33899 287.941 8.00299 279.664 11.331 272.752C14.7443 265.84 19.3523 260.592 25.155 257.008C31.043 253.424 37.6563 251.632 44.995 251.632ZM152.561 342L147.057 321.52H117.745L112.241 342H94.705L122.225 253.552H143.089L170.481 342H152.561ZM121.073 308.72H143.601L132.337 266.48L121.073 308.72ZM285.938 342H269.426L267.122 305.008C266.354 291.781 265.97 281.285 265.97 273.52V268.912L249.842 332.4H233.842L216.69 268.784C216.861 274.416 216.946 278.683 216.946 281.584C216.946 289.349 216.69 297.328 216.178 305.52L214.002 342H197.618L204.658 253.552H226.418L242.162 315.504L257.01 253.552H279.026L285.938 342ZM350.095 253.552C361.444 253.552 370.234 255.899 376.463 260.592C382.778 265.285 385.935 272.325 385.935 281.712C385.935 291.525 382.778 298.907 376.463 303.856C370.148 308.72 361.743 311.152 351.247 311.152H340.879V342H323.983V253.552H350.095ZM349.967 298.48C356.026 298.48 360.591 297.243 363.663 294.768C366.735 292.208 368.271 287.856 368.271 281.712C368.271 271.216 362.17 265.968 349.967 265.968H340.879V298.48H349.967ZM494.584 254.32C500.387 254.32 505.379 255.387 509.56 257.52C513.827 259.653 517.069 262.555 519.288 266.224C521.507 269.893 522.616 273.989 522.616 278.512C522.616 283.376 521.549 288.069 519.416 292.592C517.368 297.029 513.912 301.979 509.048 307.44C504.184 312.901 497.059 320.112 487.672 329.072H524.536L522.744 342H469.112V329.968C480.035 318.875 487.843 310.683 492.536 305.392C497.315 300.016 500.685 295.451 502.648 291.696C504.696 287.856 505.72 283.888 505.72 279.792C505.72 275.867 504.568 272.795 502.264 270.576C500.045 268.357 497.059 267.248 493.304 267.248C489.976 267.248 487.032 267.973 484.472 269.424C481.997 270.789 479.395 273.093 476.664 276.336L466.68 268.4C473.933 259.013 483.235 254.32 494.584 254.32ZM588.003 254.32C598.072 254.32 605.71 258.16 610.915 265.84C616.206 273.52 618.851 284.571 618.851 298.992C618.851 313.499 616.206 324.635 610.915 332.4C605.71 340.08 598.072 343.92 588.003 343.92C577.934 343.92 570.254 340.08 564.963 332.4C559.758 324.635 557.155 313.499 557.155 298.992C557.155 284.571 559.758 273.52 564.963 265.84C570.254 258.16 577.934 254.32 588.003 254.32ZM588.003 266.736C583.139 266.736 579.598 269.211 577.379 274.16C575.16 279.024 574.051 287.301 574.051 298.992C574.051 310.768 575.16 319.131 577.379 324.08C579.598 329.029 583.139 331.504 588.003 331.504C592.867 331.504 596.408 329.072 598.627 324.208C600.846 319.259 601.955 310.853 601.955 298.992C601.955 287.216 600.846 278.896 598.627 274.032C596.408 269.168 592.867 266.736 588.003 266.736ZM674.979 254.32C680.782 254.32 685.774 255.387 689.955 257.52C694.222 259.653 697.464 262.555 699.683 266.224C701.902 269.893 703.011 273.989 703.011 278.512C703.011 283.376 701.944 288.069 699.811 292.592C697.763 297.029 694.307 301.979 689.443 307.44C684.579 312.901 677.454 320.112 668.067 329.072H704.931L703.139 342H649.507V329.968C660.43 318.875 668.238 310.683 672.931 305.392C677.71 300.016 681.08 295.451 683.043 291.696C685.091 287.856 686.115 283.888 686.115 279.792C686.115 275.867 684.963 272.795 682.659 270.576C680.44 268.357 677.454 267.248 673.699 267.248C670.371 267.248 667.427 267.973 664.867 269.424C662.392 270.789 659.79 273.093 657.059 276.336L647.075 268.4C654.328 259.013 663.63 254.32 674.979 254.32ZM773.774 284.656C778.297 284.656 782.393 285.765 786.062 287.984C789.817 290.117 792.761 293.317 794.894 297.584C797.027 301.765 798.094 306.8 798.094 312.688C798.094 318.661 796.857 324.037 794.382 328.816C791.907 333.509 788.409 337.221 783.886 339.952C779.449 342.597 774.371 343.92 768.654 343.92C758.073 343.92 750.222 340.208 745.102 332.784C740.067 325.36 737.55 315.163 737.55 302.192C737.55 292.635 738.958 284.272 741.774 277.104C744.675 269.851 748.771 264.261 754.062 260.336C759.438 256.325 765.71 254.32 772.878 254.32C779.961 254.32 786.233 256.155 791.694 259.824L785.55 269.936C781.625 267.632 777.486 266.48 773.134 266.48C767.673 266.48 763.278 268.955 759.95 273.904C756.707 278.768 754.873 285.509 754.446 294.128C759.651 287.813 766.094 284.656 773.774 284.656ZM768.654 331.76C772.921 331.76 776.121 330.096 778.254 326.768C780.473 323.355 781.582 318.747 781.582 312.944C781.582 307.056 780.558 302.875 778.51 300.4C776.547 297.84 773.646 296.56 769.806 296.56C766.905 296.56 764.131 297.371 761.486 298.992C758.926 300.528 756.622 302.661 754.574 305.392C754.745 314.693 755.897 321.435 758.03 325.616C760.249 329.712 763.79 331.76 768.654 331.76Z" fill="white"/>
<defs>
<clipPath id="clip0_1_43">
<rect width="783" height="222" fill="white" transform="translate(10.95)"/>
</clipPath>
</defs>
</svg>
